<?xml version="1.0" standalone="no"?><svg xmlns:xlink="http://www.w3.org/1999/xlink" xmlns="http://www.w3.org/2000/svg" viewBox="0 0 1000 500" preserveAspectRatio="xMaxYMax slice"><g transform="scale(0.7153075822603719)"><rect x="0" y="0" width="1398" height="699" fill="#ffffff"/><rect x="0" y="0" width="139.8" height="139.8" fill="#b6d2c8"/><polygon points="0,0 139.8,0 139.8,139.8" fill="#dff5f5"/><rect x="139.8" y="0" width="139.8" height="139.8" fill="#b5e8e9"/><polygon points="139.8,0 279.6,139.8 139.8,139.8" fill="#d8e7e1"/><rect x="279.6" y="0" width="139.8" height="139.8" fill="#c6edee"/><path d="M 279.6 0 A 139.8 139.8 0 0 1  419.40000000000003 139.8 L 279.6 0 A 139.8 139.8 0 0 0 419.40000000000003 139.8" fill="#c2d9d1"/><rect x="419.40000000000003" y="0" width="139.8" height="139.8" fill="#ffffff"/><rect x="419.4" y="0" width="69.9" height="69.9" fill="#e3f6f7"/><polygon points="489.29999999999995,0 489.29999999999995,69.9 419.4,69.9" fill="#fafdfd"/><rect x="489.3" y="0" width="69.9" height="69.9" fill="#c9ded6"/><polygon points="489.3,0 559.2,69.9 489.3,69.9" fill="#98beb1"/><rect x="419.4" y="69.9" width="69.9" height="69.9" fill="#b3e7e8"/><polygon points="419.4,69.9 489.29999999999995,69.9 419.4,139.8" fill="#9ec2b5"/><rect x="489.3" y="69.9" width="69.9" height="69.9" fill="#f2fbfb"/><polygon points="489.3,69.9 559.2,69.9 559.2,139.8" fill="#afcdc3"/><rect x="559.2" y="0" width="139.8" height="139.8" fill="#ffffff"/><rect x="559.2" y="0" width="69.9" height="69.9" fill="#c7dcd5"/><path d="M 559.2 69.9 A 69.9 69.9 0 0 1 629.1 0 L 629.1 17.475 A 52.425000000000004 52.425000000000004 0 0 0 576.6750000000001 69.9" fill="#b8e9ea"/><rect x="629.1" y="0" width="69.9" height="69.9" fill="#cceff0"/><path d="M 629.1 0 A 69.9 69.9 0 0 1 699 69.9 L 681.525 69.9 A 52.425000000000004 52.425000000000004 0 0 0 629.1 17.475" fill="#a1c4b7"/><rect x="559.2" y="69.9" width="69.9" height="69.9" fill="#9bc1b3"/><path d="M 559.2 69.9 A 69.9 69.9 0 0 0 629.1 139.8 L 629.1 122.32500000000002 A 52.425000000000004 52.425000000000004 0 0 1 576.6750000000001 69.9" fill="#c3d9d1"/><rect x="629.1" y="69.9" width="69.9" height="69.9" fill="#f1fbfb"/><path d="M 629.1 139.8 A 69.9 69.9 0 0 0 699 69.9 L 681.525 69.9 A 52.425000000000004 52.425000000000004 0 0 1 629.1 122.32500000000002" fill="#b6e8e9"/><rect x="699" y="0" width="139.8" height="139.8" fill="#ffffff"/><rect x="699" y="0" width="69.9" height="69.9" fill="#c5edee"/><path d="M 699 69.9 A 69.9 69.9 0 0 0 768.9 0 L 699 0" fill="#99bfb1"/><rect x="768.9" y="0" width="69.9" height="69.9" fill="#f7fcfd"/><path d="M 768.9 0 A 69.9 69.9 0 0 0 838.8 69.9 L 838.8 0" fill="#96bdaf"/><rect x="699" y="69.9" width="69.9" height="69.9" fill="#caded7"/><path d="M 699 69.9 A 69.9 69.9 0 0 1 768.9 139.8 L 699 139.8" fill="#e5f7f7"/><rect x="768.9" y="69.9" width="69.9" height="69.9" fill="#b3cfc5"/><path d="M 768.9 139.8 A 69.9 69.9 0 0 1  838.8 69.9 L 838.8 139.8" fill="#d2e3dd"/><rect x="838.8" y="0" width="139.8" height="139.8" fill="#dbf4f4"/><polygon points="978.5999999999999,0 978.5999999999999,139.8 838.8,139.8" fill="#c0d8cf"/><rect x="978.6" y="0" width="139.8" height="139.8" fill="#e2f6f6"/><rect x="978.6" y="0" width="139.8" height="139.8" fill="#b7e9ea"/><rect x="1118.4" y="0" width="139.8" height="139.8" fill="#e8f0ed"/><path d="M 1118.4 0 A 139.8 139.8 0 0 1 1258.2 139.8 L 1118.4 139.8" fill="#f2fbfb"/><rect x="1258.2" y="0" width="139.8" height="139.8" fill="#cbefef"/><path d="M 1258.2 0 A 139.8 139.8 0 0 1 1398 139.8 L 1258.2 139.8" fill="#c9ddd6"/><rect x="0" y="139.8" width="139.8" height="139.8" fill="#ffffff"/><rect x="0" y="139.8" width="69.9" height="69.9" fill="#e4f6f7"/><path d="M 0 209.70000000000002 A 69.9 69.9 0 0 0 69.9 139.8 L 0 139.8" fill="#eaf9f9"/><rect x="69.9" y="139.8" width="69.9" height="69.9" fill="#c6edee"/><path d="M 69.9 139.8 A 69.9 69.9 0 0 0 139.8 209.70000000000002 L 139.8 139.8" fill="#edf9fa"/><rect x="0" y="209.7" width="69.9" height="69.9" fill="#a0c4b7"/><path d="M 0 209.7 A 69.9 69.9 0 0 1 69.9 279.6 L 0 279.6" fill="#ccdfd9"/><rect x="69.9" y="209.7" width="69.9" height="69.9" fill="#deeae6"/><path d="M 69.9 279.6 A 69.9 69.9 0 0 1  139.8 209.7 L 139.8 279.6" fill="#edf3f1"/><rect x="139.8" y="139.8" width="139.8" height="139.8" fill="#ffffff"/><rect x="139.8" y="139.8" width="69.9" height="69.9" fill="#f8fbfa"/><polygon points="209.70000000000002,139.8 209.70000000000002,209.70000000000002 139.8,209.70000000000002" fill="#c0d8cf"/><rect x="209.7" y="139.8" width="69.9" height="69.9" fill="#afcdc2"/><polygon points="209.7,139.8 279.6,209.70000000000002 209.7,209.70000000000002" fill="#e1ede9"/><rect x="139.8" y="209.7" width="69.9" height="69.9" fill="#9cc1b4"/><polygon points="139.8,209.7 209.70000000000002,209.7 209.70000000000002,279.6" fill="#adccc0"/><rect x="209.7" y="209.7" width="69.9" height="69.9" fill="#c3eced"/><polygon points="209.7,209.7 279.6,209.7 209.7,279.6" fill="#d6f2f3"/><rect x="279.6" y="139.8" width="139.8" height="139.8" fill="#ffffff"/><rect x="279.6" y="139.8" width="69.9" height="69.9" fill="#eaf2ef"/><polygon points="349.5,139.8 349.5,209.70000000000002 279.6,209.70000000000002" fill="#daf3f4"/><rect x="349.5" y="139.8" width="69.9" height="69.9" fill="#e9f8f8"/><polygon points="349.5,139.8 419.4,209.70000000000002 349.5,209.70000000000002" fill="#ebf9f9"/><rect x="279.6" y="209.7" width="69.9" height="69.9" fill="#b5e8e9"/><polygon points="279.6,209.7 349.5,209.7 279.6,279.6" fill="#edf3f1"/><rect x="349.5" y="209.7" width="69.9" height="69.9" fill="#c7eeee"/><polygon points="349.5,209.7 419.4,209.7 419.4,279.6" fill="#e1f6f6"/><rect x="419.4" y="139.8" width="139.8" height="139.8" fill="#fcfefe"/><polygon points="419.4,139.8 559.2,279.6 419.4,279.6" fill="#9dc1b4"/><rect x="559.2" y="139.8" width="139.8" height="139.8" fill="#ffffff"/><rect x="559.2" y="139.8" width="69.9" height="69.9" fill="#bbeaeb"/><circle cx="594.1500000000001" cy="174.75" r="34.95" fill="#d3e4de"/><rect x="629.1" y="139.8" width="69.9" height="69.9" fill="#f8fdfd"/><rect x="629.1" y="139.8" width="69.9" height="69.9" fill="#cee0da"/><rect x="559.2" y="209.7" width="69.9" height="69.9" fill="#daf3f4"/><circle cx="594.1500000000001" cy="244.64999999999998" r="34.95" fill="#bfebec"/><rect x="629.1" y="209.7" width="69.9" height="69.9" fill="#ecf9f9"/><rect x="629.1" y="209.7" width="69.9" height="69.9" fill="#cbeff0"/><rect x="699" y="139.8" width="139.8" height="139.8" fill="#ffffff"/><rect x="699" y="139.8" width="69.9" height="69.9" fill="#90b9ab"/><circle cx="733.95" cy="174.75" r="34.95" fill="#b4d0c6"/><rect x="768.9" y="139.8" width="69.9" height="69.9" fill="#eff5f3"/><rect x="768.9" y="139.8" width="69.9" height="69.9" fill="#b8d3c9"/><rect x="699" y="209.7" width="69.9" height="69.9" fill="#a3c6b9"/><circle cx="733.95" cy="244.64999999999998" r="34.95" fill="#eefafa"/><rect x="768.9" y="209.7" width="69.9" height="69.9" fill="#f9fdfd"/><rect x="768.9" y="209.7" width="69.9" height="69.9" fill="#e1ece8"/><rect x="838.8" y="139.8" width="139.8" height="139.8" fill="#bfebec"/><path d="M 838.8 139.8 A 139.8 139.8 0 0 0 978.5999999999999 279.6 L 978.5999999999999 139.8" fill="#b9e9ea"/><rect x="978.6000000000001" y="139.8" width="139.8" height="139.8" fill="#ffffff"/><rect x="978.6" y="139.8" width="69.9" height="69.9" fill="#cef0f0"/><path d="M 978.6 139.8 A 69.9 69.9 0 0 0 1048.5 209.70000000000002 L 1048.5 139.8" fill="#f9fbfa"/><rect x="1048.5" y="139.8" width="69.9" height="69.9" fill="#e1ece8"/><path d="M 1048.5 209.70000000000002 A 69.9 69.9 0 0 0 1118.4 139.8 L 1048.5 139.8" fill="#c0d8cf"/><rect x="978.6" y="209.7" width="69.9" height="69.9" fill="#d4e4de"/><path d="M 978.6 279.6 A 69.9 69.9 0 0 1  1048.5 209.7 L 1048.5 279.6" fill="#d9f3f4"/><rect x="1048.5" y="209.7" width="69.9" height="69.9" fill="#c6edee"/><path d="M 1048.5 209.7 A 69.9 69.9 0 0 1 1118.4 279.6 L 1048.5 279.6" fill="#b4e8e9"/><rect x="1118.4" y="139.8" width="139.8" height="139.8" fill="#fdfefe"/><polygon points="1118.4,139.8 1258.2,139.8 1258.2,279.6" fill="#9ec2b5"/><rect x="1258.2" y="139.8" width="139.8" height="139.8" fill="#ffffff"/><rect x="1258.2" y="139.8" width="69.9" height="69.9" fill="#f5fcfc"/><circle cx="1293.15" cy="174.75" r="34.95" fill="#a0c3b7"/><rect x="1328.1" y="139.8" width="69.9" height="69.9" fill="#b3cfc5"/><rect x="1328.1" y="139.8" width="69.9" height="69.9" fill="#f1f6f5"/><rect x="1258.2" y="209.7" width="69.9" height="69.9" fill="#c2d9d1"/><circle cx="1293.15" cy="244.64999999999998" r="34.95" fill="#a0c4b7"/><rect x="1328.1" y="209.7" width="69.9" height="69.9" fill="#fdfdfd"/><rect x="1328.1" y="209.7" width="69.9" height="69.9" fill="#d4f2f2"/><rect x="0" y="279.6" width="139.8" height="139.8" fill="#ffffff"/><rect x="0" y="279.6" width="69.9" height="69.9" fill="#cef0f0"/><circle cx="34.95" cy="314.55" r="34.95" fill="#c2eced"/><rect x="69.9" y="279.6" width="69.9" height="69.9" fill="#fbfdfc"/><rect x="69.9" y="279.6" width="69.9" height="69.9" fill="#ecf9f9"/><rect x="0" y="349.5" width="69.9" height="69.9" fill="#feffff"/><circle cx="34.95" cy="384.45" r="34.95" fill="#e1f6f6"/><rect x="69.9" y="349.5" width="69.9" height="69.9" fill="#cde0d9"/><rect x="69.9" y="349.5" width="69.9" height="69.9" fill="#9fc3b6"/><rect x="139.8" y="279.6" width="139.8" height="139.8" fill="#ffffff"/><rect x="139.8" y="279.6" width="69.9" height="69.9" fill="#f9fbfa"/><path d="M 139.8 349.5 A 69.9 69.9 0 0 0 209.70000000000002 279.6 L 139.8 279.6" fill="#e9f8f9"/><rect x="209.7" y="279.6" width="69.9" height="69.9" fill="#adccc1"/><path d="M 209.7 279.6 A 69.9 69.9 0 0 0 279.6 349.5 L 279.6 279.6" fill="#afcdc2"/><rect x="139.8" y="349.5" width="69.9" height="69.9" fill="#caded6"/><path d="M 139.8 349.5 A 69.9 69.9 0 0 1 209.70000000000002 419.4 L 139.8 419.4" fill="#aacabf"/><rect x="209.7" y="349.5" width="69.9" height="69.9" fill="#94bcae"/><path d="M 209.7 419.4 A 69.9 69.9 0 0 1  279.6 349.5 L 279.6 419.4" fill="#c4dad3"/><rect x="279.6" y="279.6" width="139.8" height="139.8" fill="#ffffff"/><rect x="279.6" y="279.6" width="69.9" height="69.9" fill="#f2f7f5"/><path d="M 279.6 349.5 A 69.9 69.9 0 0 0 349.5 279.6 L 279.6 279.6" fill="#9bc1b3"/><rect x="349.5" y="279.6" width="69.9" height="69.9" fill="#abcbbf"/><path d="M 349.5 279.6 A 69.9 69.9 0 0 0 419.4 349.5 L 419.4 279.6" fill="#cbded8"/><rect x="279.6" y="349.5" width="69.9" height="69.9" fill="#caeeef"/><path d="M 279.6 349.5 A 69.9 69.9 0 0 1 349.5 419.4 L 279.6 419.4" fill="#d7e6e1"/><rect x="349.5" y="349.5" width="69.9" height="69.9" fill="#b4d0c6"/><path d="M 349.5 419.4 A 69.9 69.9 0 0 1  419.4 349.5 L 419.4 419.4" fill="#bbeaeb"/><rect x="419.4" y="279.6" width="139.8" height="139.8" fill="#90baab"/><path d="M 419.4 419.40000000000003 A 139.8 139.8 0 0 1  559.2 279.6 L 419.4 419.40000000000003 A 139.8 139.8 0 0 0 559.2 279.6" fill="#eefafa"/><rect x="559.2" y="279.6" width="139.8" height="139.8" fill="#ffffff"/><rect x="559.2" y="279.6" width="69.9" height="69.9" fill="#d6f2f3"/><path d="M 559.2 349.5 A 69.9 69.9 0 0 1  629.1 279.6 L 629.1 349.5" fill="#afcdc2"/><rect x="629.1" y="279.6" width="69.9" height="69.9" fill="#f0f6f4"/><path d="M 629.1 279.6 A 69.9 69.9 0 0 1 699 349.5 L 629.1 349.5" fill="#ddf4f5"/><rect x="559.2" y="349.5" width="69.9" height="69.9" fill="#c4dad2"/><path d="M 559.2 349.5 A 69.9 69.9 0 0 0 629.1 419.4 L 629.1 349.5" fill="#cef0f0"/><rect x="629.1" y="349.5" width="69.9" height="69.9" fill="#e3f6f7"/><path d="M 629.1 419.4 A 69.9 69.9 0 0 0 699 349.5 L 629.1 349.5" fill="#b6d1c7"/><rect x="699" y="279.6" width="139.8" height="139.8" fill="#ffffff"/><rect x="699" y="279.6" width="69.9" height="69.9" fill="#e2f6f6"/><path d="M 699 349.5 A 69.9 69.9 0 0 1 768.9 279.6 L 768.9 297.07500000000005 A 52.425000000000004 52.425000000000004 0 0 0 716.475 349.5" fill="#91baac"/><rect x="768.9" y="279.6" width="69.9" height="69.9" fill="#c2eced"/><path d="M 768.9 279.6 A 69.9 69.9 0 0 1 838.8 349.5 L 821.3249999999999 349.5 A 52.425000000000004 52.425000000000004 0 0 0 768.9 297.07500000000005" fill="#ecf9f9"/><rect x="699" y="349.5" width="69.9" height="69.9" fill="#b3e7e8"/><path d="M 699 349.5 A 69.9 69.9 0 0 0 768.9 419.4 L 768.9 401.925 A 52.425000000000004 52.425000000000004 0 0 1 716.475 349.5" fill="#b6e8e9"/><rect x="768.9" y="349.5" width="69.9" height="69.9" fill="#c9ddd6"/><path d="M 768.9 419.4 A 69.9 69.9 0 0 0 838.8 349.5 L 821.3249999999999 349.5 A 52.425000000000004 52.425000000000004 0 0 1 768.9 401.925" fill="#fafcfb"/><rect x="838.8000000000001" y="279.6" width="139.8" height="139.8" fill="#ffffff"/><rect x="838.8" y="279.6" width="69.9" height="69.9" fill="#93bbad"/><circle cx="873.75" cy="314.55" r="34.95" fill="#bfebec"/><rect x="908.7" y="279.6" width="69.9" height="69.9" fill="#cef0f0"/><rect x="908.7" y="279.6" width="69.9" height="69.9" fill="#dff5f5"/><rect x="838.8" y="349.5" width="69.9" height="69.9" fill="#b3e7e8"/><circle cx="873.75" cy="384.45" r="34.95" fill="#bad4cb"/><rect x="908.7" y="349.5" width="69.9" height="69.9" fill="#abcbbf"/><rect x="908.7" y="349.5" width="69.9" height="69.9" fill="#e0ece8"/><rect x="978.6" y="279.6" width="139.8" height="139.8" fill="#e9f2ef"/><path d="M 978.6 419.40000000000003 A 139.8 139.8 0 0 1  1118.4 279.6 L 1118.4 419.40000000000003" fill="#fafdfd"/><rect x="1118.4" y="279.6" width="139.8" height="139.8" fill="#ffffff"/><rect x="1118.4" y="279.6" width="69.9" height="69.9" fill="#def5f5"/><path d="M 1118.4 279.6 A 69.9 69.9 0 0 1 1188.3000000000002 349.5 L 1118.4 349.5" fill="#f1fbfb"/><rect x="1188.3" y="279.6" width="69.9" height="69.9" fill="#b5e8e9"/><path d="M 1188.3 349.5 A 69.9 69.9 0 0 1  1258.2 279.6 L 1258.2 349.5" fill="#ebf9f9"/><rect x="1118.4" y="349.5" width="69.9" height="69.9" fill="#f9fbfb"/><path d="M 1118.4 419.4 A 69.9 69.9 0 0 0 1188.3000000000002 349.5 L 1118.4 349.5" fill="#d6f2f3"/><rect x="1188.3" y="349.5" width="69.9" height="69.9" fill="#e5efeb"/><path d="M 1188.3 349.5 A 69.9 69.9 0 0 0 1258.2 419.4 L 1258.2 349.5" fill="#cef0f0"/><rect x="1258.2" y="279.6" width="139.8" height="139.8" fill="#ddeae5"/><rect x="1258.2" y="279.6" width="139.8" height="139.8" fill="#9dc2b5"/><rect x="0" y="419.4" width="139.8" height="139.8" fill="#feffff"/><polygon points="0,419.4 139.8,419.4 0,559.2" fill="#e8f8f8"/><rect x="139.8" y="419.40000000000003" width="139.8" height="139.8" fill="#ffffff"/><rect x="139.8" y="419.4" width="69.9" height="69.9" fill="#d8f3f3"/><path d="M 139.8 419.4 A 69.9 69.9 0 0 0 209.70000000000002 489.29999999999995 L 209.70000000000002 419.4" fill="#dbe9e4"/><rect x="209.7" y="419.4" width="69.9" height="69.9" fill="#d5f2f3"/><path d="M 209.7 489.29999999999995 A 69.9 69.9 0 0 0 279.6 419.4 L 209.7 419.4" fill="#e0f5f6"/><rect x="139.8" y="489.3" width="69.9" height="69.9" fill="#f4f8f7"/><path d="M 139.8 559.2 A 69.9 69.9 0 0 1  209.70000000000002 489.3 L 209.70000000000002 559.2" fill="#cbefef"/><rect x="209.7" y="489.3" width="69.9" height="69.9" fill="#b4e8e9"/><path d="M 209.7 489.3 A 69.9 69.9 0 0 1 279.6 559.2 L 209.7 559.2" fill="#f0fafa"/><rect x="279.6" y="419.4" width="139.8" height="139.8" fill="#edf9f9"/><rect x="279.6" y="419.4" width="139.8" height="139.8" fill="#9fc3b6"/><rect x="419.4" y="419.4" width="139.8" height="139.8" fill="#8fb9aa"/><rect x="419.4" y="419.4" width="139.8" height="139.8" fill="#e1ece8"/><rect x="559.2" y="419.4" width="139.8" height="139.8" fill="#dbf4f4"/><rect x="559.2" y="419.4" width="139.8" height="139.8" fill="#c8ddd5"/><rect x="699" y="419.40000000000003" width="139.8" height="139.8" fill="#ffffff"/><rect x="699" y="419.4" width="69.9" height="69.9" fill="#bdeaeb"/><polygon points="768.9,419.4 768.9,489.29999999999995 699,489.29999999999995" fill="#f1f6f5"/><rect x="768.9" y="419.4" width="69.9" height="69.9" fill="#f0f6f4"/><polygon points="768.9,419.4 838.8,489.29999999999995 768.9,489.29999999999995" fill="#bfebec"/><rect x="699" y="489.3" width="69.9" height="69.9" fill="#9ac0b2"/><polygon points="699,489.3 768.9,489.3 768.9,559.2" fill="#ccdfd8"/><rect x="768.9" y="489.3" width="69.9" height="69.9" fill="#e5efeb"/><polygon points="768.9,489.3 838.8,489.3 768.9,559.2" fill="#def5f5"/><rect x="838.8" y="419.4" width="139.8" height="139.8" fill="#bad4ca"/><polygon points="978.5999999999999,419.4 978.5999999999999,559.2 838.8,559.2" fill="#93bcad"/><rect x="978.6000000000001" y="419.40000000000003" width="139.8" height="139.8" fill="#ffffff"/><rect x="978.6" y="419.4" width="69.9" height="69.9" fill="#96beb0"/><polygon points="1048.5,419.4 1048.5,489.29999999999995 978.6,489.29999999999995" fill="#e1ede9"/><rect x="1048.5" y="419.4" width="69.9" height="69.9" fill="#e6f7f8"/><polygon points="1048.5,419.4 1118.4,489.29999999999995 1048.5,489.29999999999995" fill="#eef4f2"/><rect x="978.6" y="489.3" width="69.9" height="69.9" fill="#ccdfd9"/><polygon points="978.6,489.3 1048.5,489.3 978.6,559.2" fill="#f8fbfa"/><rect x="1048.5" y="489.3" width="69.9" height="69.9" fill="#bdebeb"/><polygon points="1048.5,489.3 1118.4,489.3 1118.4,559.2" fill="#e0f5f6"/><rect x="1118.4" y="419.4" width="139.8" height="139.8" fill="#ecf3f1"/><rect x="1118.4" y="419.4" width="139.8" height="139.8" fill="#b7d2c8"/><rect x="1258.2" y="419.4" width="139.8" height="139.8" fill="#fbfdfc"/><polygon points="1258.2,419.4 1398,419.4 1398,559.2" fill="#ffffff"/><rect x="0" y="559.2" width="139.8" height="139.8" fill="#c0d8cf"/><rect x="0" y="559.2" width="139.8" height="139.8" fill="#c6dbd4"/><rect x="139.8" y="559.2" width="139.8" height="139.8" fill="#ffffff"/><rect x="139.8" y="559.2" width="69.9" height="69.9" fill="#abcbbf"/><polygon points="209.70000000000002,559.2 209.70000000000002,629.1 139.8,629.1" fill="#d5f2f2"/><rect x="209.7" y="559.2" width="69.9" height="69.9" fill="#a7c8bc"/><polygon points="209.7,559.2 279.6,629.1 209.7,629.1" fill="#e1ece8"/><rect x="139.8" y="629.1" width="69.9" height="69.9" fill="#f2fbfb"/><polygon points="139.8,629.1 209.70000000000002,629.1 209.70000000000002,699" fill="#c9ddd6"/><rect x="209.7" y="629.1" width="69.9" height="69.9" fill="#e7f8f8"/><polygon points="209.7,629.1 279.6,629.1 209.7,699" fill="#edf9fa"/><rect x="279.6" y="559.2" width="139.8" height="139.8" fill="#e1f6f6"/><path d="M 279.6 699 A 139.8 139.8 0 0 0 419.40000000000003 559.2 L 279.6 559.2" fill="#abcbc0"/><rect x="419.4" y="559.2" width="139.8" height="139.8" fill="#f9fbfa"/><rect x="419.4" y="559.2" width="139.8" height="139.8" fill="#bfd7cf"/><rect x="559.2" y="559.2" width="139.8" height="139.8" fill="#a6c7bb"/><polygon points="699,559.2 699,699 559.2,699" fill="#91baac"/><rect x="699" y="559.2" width="139.8" height="139.8" fill="#aeccc2"/><path d="M 699 559.2 A 139.8 139.8 0 0 1 838.8 699 L 699 699" fill="#98beb1"/><rect x="838.8" y="559.2" width="139.8" height="139.8" fill="#d2e3dd"/><rect x="838.8" y="559.2" width="139.8" height="139.8" fill="#f6f9f8"/><rect x="978.6" y="559.2" width="139.8" height="139.8" fill="#a0c4b7"/><rect x="978.6" y="559.2" width="139.8" height="139.8" fill="#9bc0b3"/><rect x="1118.4" y="559.2" width="139.8" height="139.8" fill="#cff0f1"/><path d="M 1118.4 699 A 139.8 139.8 0 0 1  1258.2 559.2 L 1258.2 699" fill="#d5e5df"/><rect x="1258.2" y="559.2" width="139.8" height="139.8" fill="#f0f6f3"/><polygon points="1258.2,559.2 1398,699 1258.2,699" fill="#d6e6e0"/></g></svg>